<?xml version="1.0" encoding="UTF-8" standalone="no"?>
<svg
   xmlns:dc="http://purl.org/dc/elements/1.1/"
   xmlns:cc="http://creativecommons.org/ns#"
   xmlns:rdf="http://www.w3.org/1999/02/22-rdf-syntax-ns#"
   xmlns:svg="http://www.w3.org/2000/svg"
   xmlns="http://www.w3.org/2000/svg"
   viewBox="0 0 4997.8735 649.99994"
   height="649.99994"
   width="4997.8735"
   id="svg2"
   version="1.1">
  <metadata
     id="metadata8">
    <rdf:RDF>
      <cc:Work
         rdf:about="">
        <dc:format>image/svg+xml</dc:format>
        <dc:type
           rdf:resource="http://purl.org/dc/dcmitype/StillImage" />
        <dc:title></dc:title>
      </cc:Work>
    </rdf:RDF>
  </metadata>
  <defs
     id="defs6" />
  <path
     id="path4520"
     d="m 1247.8355,647.62055 c -26.7068,-7.98877 -48.187,-20.92238 -69.1237,-41.62059 -16.488,-16.30021 -29.4251,-34.31709 -38.4623,-53.56469 -4.3299,-9.22191 -11.414,-28.48198 -11.414,-31.03209 0,-1.20179 53.6157,-1.40322 373.5,-1.40322 329.9994,0 373.5,0.17331 373.5,1.48804 0,0.81843 -1.4039,5.8707 -3.1198,11.22728 -9.2254,28.7998 -24.4418,52.91393 -47.5346,75.33023 -18.6835,18.13608 -38.4125,30.18432 -62.125,37.93882 l -12.2794,4.01563 -247.7206,-0.068 -247.7206,-0.068 -7.5,-2.24347 z m 960.0756,-3.37059 c 15.2039,-27.12957 27.8274,-43.10954 51.4244,-65.09729 25.5517,-23.80914 61.5565,-44.42803 97.9217,-56.07684 l 9.6022,-3.07587 h 228.4881 228.488 v -67.5 -67.5 h -290.5 -290.5 v -192 V 1 h 355.0191 355.019 l -0.6321,2.75 c -1.2572,5.4695004 -7.7508,20.924 -12.0802,28.75 -21.7471,39.311 -60.4786,71.3322 -110.3258,91.21134 l -9.5,3.78862 -227,0.5 -227,0.5 0.2504,18 c 0.1377,9.9 0.5285,39.0375 0.8683,64.75 l 0.618,46.75 h 290.3816 290.3817 v 196 196 H 2576.7621 2204.6887 Z M 3307.8355,325.49256 V 0.9852 l 63.75,0.2574 63.75,0.2574 0.2519,260.74996 0.2519,260.75 h 281.9981 c 259.5217,0 281.9981,0.12939 281.9981,1.62335 0,3.37083 -7.2958,23.30909 -12.496,34.14939 -18.1455,37.82624 -46.2847,66.05805 -85.3881,85.66914 l -11.0826,5.55812 h -291.5166 -291.5167 z m 964,128.5074 v -196 h 355 355 v 196 196 h -63 -63 v -130.5 -130.5 h -229.5 -229.5 v 130.5 130.5 h -62.5 -62.5 z m -3926.24802,-62.64197 -0.25191,-257.65678 -4,-1.60063 c -3.55097,-1.42094 -15.9554,-1.65675 -110.5,-2.10062 l -106.5,-0.5 -9.5,-3.32419 C 62.78542,107.9627 20.96051,65.3867 3.3182306,12.656 1.3227806,6.6918 -0.16388984,1.6661 0.01452016,1.4877 0.19293016,1.3093 184.72566,0.8329 410.08724,0.429 699.09683,-0.08890001 819.83553,0.0078 819.83553,0.7572 c 0,3.5224 -7.0307,21.7745 -12.9977,33.7428 -13.7205,27.5197 -32.34,49.1491 -58.6909,68.1782 -10.4304,7.5323 -35.0823,20.01666 -47.9589,24.28765 l -9.1475,3.03411 -103.3525,0.0775 c -95.9475,0.072 -103.7107,0.20352 -108.3525,1.83631 l -5,1.7588 -0.5,257.4137 -0.5,257.41369 -63.74805,0.2574 -63.74809,0.2574 z m 905.67962,-6.8464 c -48.6498,-14.42372 -89.0853,-49.60811 -111.4905,-97.01163 -4.5999,-9.73236 -10.9411,-27.15249 -10.9411,-30.0569 0,-1.25489 48.7115,-1.4431 373.5,-1.4431 371.896,0 373.5,0.009 373.5,1.98506 0,3.51848 -7.0391,23.15243 -12.0622,33.64478 -2.6842,5.60692 -8.4605,15.52145 -12.8362,22.03228 -22.5611,33.56993 -51.0985,56.0135 -87.1016,68.50197 l -12.5,4.33591 -246,0.20189 -246,0.20188 z m 4.0684,-255.20505 c -6.5668,-1.51504 -24.3051,-8.19372 -32,-12.04839 -29.2404,-14.64765 -56.0823,-39.38285 -73.529,-67.75815 -8.3697,-13.6124 -20.971,-42.7867 -20.971,-48.5517 0,-0.5961 138.7202,-0.9483 373.5,-0.9483 355.0532,0 373.4993,0.086 373.4853,1.75 -0.031,3.6623 -8.0498,25.4148 -13.0208,35.3207 -19.9273,39.7098 -54.7401,72.1781 -92.4645,86.23754 -3.85,1.43485 -10.366,3.52747 -14.4799,4.65027 -7.4413,2.03093 -8.7457,2.04085 -253,1.92545 -135.0361,-0.0638 -246.4201,-0.32364 -247.5201,-0.57742 z m 3117.3626,-1.34321 C 4321.7756,113.42798 4276.4139,69.3061 4256.5603,15 4254.6501,9.7750004 4252.797,4.2625 4252.4423,2.75 L 4251.7974,0 h 373.0381 373.0381 l -0.6636,2.75 c -1.6352,6.7765004 -6.9682,20.6771 -11.9021,31.0227 -9.1018,19.0851 -19.901,34.4978 -35.4458,50.5882 -20.067,20.7712 -44.0575,35.44058 -70.485,43.09897 l -8.7653,2.54009 -245.6382,-0.071 c -237.9642,-0.0688 -245.8455,-0.13021 -252.2755,-1.9656 z"
     style="fill:#5d5d5d" />
  <path
     style="fill:#5d5d5d"
     d="m 1247.8355,647.62055 c -26.7068,-7.98877 -48.187,-20.92238 -69.1237,-41.62059 -16.488,-16.30021 -29.4251,-34.31709 -38.4623,-53.56469 -4.3299,-9.22191 -11.414,-28.48198 -11.414,-31.03209 0,-1.20179 53.6157,-1.40322 373.5,-1.40322 329.9994,0 373.5,0.17331 373.5,1.48804 0,0.81843 -1.4039,5.8707 -3.1198,11.22728 -9.2254,28.7998 -24.4418,52.91393 -47.5346,75.33023 -18.6835,18.13608 -38.4125,30.18432 -62.125,37.93882 l -12.2794,4.01563 -247.7206,-0.068 -247.7206,-0.068 -7.5,-2.24347 z m 960.0756,-3.37059 c 15.2039,-27.12957 27.8274,-43.10954 51.4244,-65.09729 25.5517,-23.80914 61.5565,-44.42803 97.9217,-56.07684 l 9.6022,-3.07587 h 228.4881 228.488 v -67.5 -67.5 h -290.5 -290.5 v -192 V 1 h 355.0191 355.019 l -0.6321,2.75 c -1.2572,5.4695004 -7.7508,20.924 -12.0802,28.75 -21.7471,39.311 -60.4786,71.3322 -110.3258,91.21134 l -9.5,3.78862 -227,0.5 -227,0.5 0.2504,18 c 0.1377,9.9 0.5285,39.0375 0.8683,64.75 l 0.618,46.75 h 290.3816 290.3817 v 196 196 H 2576.7621 2204.6887 Z M 3307.8355,325.49256 V 0.9852 l 63.75,0.2574 63.75,0.2574 0.2519,260.74996 0.2519,260.75 h 281.9981 c 259.5217,0 281.9981,0.12939 281.9981,1.62335 0,3.37083 -7.2958,23.30909 -12.496,34.14939 -18.1455,37.82624 -46.2847,66.05805 -85.3881,85.66914 l -11.0826,5.55812 h -291.5166 -291.5167 z m 964,128.5074 v -196 h 355 355 v 196 196 h -63 -63 v -130.5 -130.5 h -229.5 -229.5 v 130.5 130.5 h -62.5 -62.5 z m -3926.24802,-62.64197 -0.25191,-257.65678 -4,-1.60063 c -3.55097,-1.42094 -15.9554,-1.65675 -110.5,-2.10062 l -106.5,-0.5 -9.5,-3.32419 C 62.78542,107.9627 20.96051,65.3867 3.3182306,12.656 1.3227806,6.6918 -0.16388984,1.6661 0.01452016,1.4877 0.19293016,1.3093 184.72566,0.8329 410.08724,0.429 699.09683,-0.08890001 819.83553,0.0078 819.83553,0.7572 c 0,3.5224 -7.0307,21.7745 -12.9977,33.7428 -13.7205,27.5197 -32.34,49.1491 -58.6909,68.1782 -10.4304,7.5323 -35.0823,20.01666 -47.9589,24.28765 l -9.1475,3.03411 -103.3525,0.0775 c -95.9475,0.072 -103.7107,0.20352 -108.3525,1.83631 l -5,1.7588 -0.5,257.4137 -0.5,257.41369 -63.74805,0.2574 -63.74809,0.2574 z m 905.67962,-6.8464 c -48.6498,-14.42372 -89.0853,-49.60811 -111.4905,-97.01163 -4.5999,-9.73236 -10.9411,-27.15249 -10.9411,-30.0569 0,-1.25489 48.7115,-1.4431 373.5,-1.4431 371.896,0 373.5,0.009 373.5,1.98506 0,3.51848 -7.0391,23.15243 -12.0622,33.64478 -2.6842,5.60692 -8.4605,15.52145 -12.8362,22.03228 -22.5611,33.56993 -51.0985,56.0135 -87.1016,68.50197 l -12.5,4.33591 -246,0.20189 -246,0.20188 z m 4.0684,-255.20505 c -6.5668,-1.51504 -24.3051,-8.19372 -32,-12.04839 -29.2404,-14.64765 -56.0823,-39.38285 -73.529,-67.75815 -8.3697,-13.6124 -20.971,-42.7867 -20.971,-48.5517 0,-0.5961 138.7202,-0.9483 373.5,-0.9483 355.0532,0 373.4993,0.086 373.4853,1.75 -0.031,3.6623 -8.0498,25.4148 -13.0208,35.3207 -19.9273,39.7098 -54.7401,72.1781 -92.4645,86.23754 -3.85,1.43485 -10.366,3.52747 -14.4799,4.65027 -7.4413,2.03093 -8.7457,2.04085 -253,1.92545 -135.0361,-0.0638 -246.4201,-0.32364 -247.5201,-0.57742 z m 3117.3626,-1.34321 C 4321.7756,113.42798 4276.4139,69.3061 4256.5603,15 4254.6501,9.7750004 4252.797,4.2625 4252.4423,2.75 L 4251.7974,0 h 373.0381 373.0381 l -0.6636,2.75 c -1.6352,6.7765004 -6.9682,20.6771 -11.9021,31.0227 -9.1018,19.0851 -19.901,34.4978 -35.4458,50.5882 -20.067,20.7712 -44.0575,35.44058 -70.485,43.09897 l -8.7653,2.54009 -245.6382,-0.071 c -237.9642,-0.0688 -245.8455,-0.13021 -252.2755,-1.9656 z"
     id="path4522" />
</svg>
