<?xml version="1.0" encoding="UTF-8" standalone="no"?>
<svg
   xmlns:dc="http://purl.org/dc/elements/1.1/"
   xmlns:cc="http://creativecommons.org/ns#"
   xmlns:rdf="http://www.w3.org/1999/02/22-rdf-syntax-ns#"
   xmlns:svg="http://www.w3.org/2000/svg"
   xmlns="http://www.w3.org/2000/svg"
   viewBox="0 0 99.969742 83.992523"
   height="83.992523"
   width="99.969742"
   id="svg2"
   version="1.1">
  <metadata
     id="metadata8">
    <rdf:RDF>
      <cc:Work
         rdf:about="">
        <dc:format>image/svg+xml</dc:format>
        <dc:type
           rdf:resource="http://purl.org/dc/dcmitype/StillImage" />
        <dc:title></dc:title>
      </cc:Work>
    </rdf:RDF>
  </metadata>
  <defs
     id="defs6" />
  <path
     id="path817"
     d="m 21.30902,82.065264 c -1.73839,-1.06 -3.45621,-2.85832 -3.81738,-3.99627 C 17.06474,76.723984 15.98374,76 14.40235,76 11.06831,76 7.9697399,72.628116 7.9697399,69 c 0,-2.333333 -0.44445,-3 -2,-3 -1.1,0 -2.93884,-0.93884 -4.08631,-2.086312 -1.97023996,-1.97024 -2.06700996,-2.957759 -1.73927996,-17.75 C 0.52427994,29.00625 1.1521399,26.734943 7.3316899,20.162371 14.15367,12.906505 15.77486,12.53579 42.21974,12.184578 c 17.87284,-0.237368 23.75,-0.617859 23.75,-1.537592 0,-0.6721931 2.15295,-3.3427531 4.78435,-5.9345781 C 75.42083,0.11584 75.69102,0 81.74561,0 c 5.12417,0 6.4251,0.348953 7.4562,2 0.96481,1.5449029 2.33203,1.9999999 6.00847,1.9999999 4.09279,0 4.759458,0.280144 4.759458,2 0,1.733333 -0.666668,2 -4.999998,2 h -5 V 14 20 h 5 c 4.33333,0 4.999998,0.266667 4.999998,2 0,1.719856 -0.666668,2 -4.759458,2 -3.67644,0 -5.04366,0.455097 -6.00847,2 -1.03359,1.655045 -2.33203,2 -7.52814,2 -6.17389,0 -6.35808,-0.08017 -10.99152,-4.784349 -2.59183,-2.631392 -4.71241,-5.331392 -4.71241,-6 0,-0.918435 -5.43993,-1.210281 -22.25,-1.193689 -24.80748,0.02449 -27.18049,0.520567 -33.48325,6.999713 -5.3732401,5.523616 -6.3757201,9.659088 -6.0520001,24.965979 0.25204,11.917572 0.48896,13.52673 2.03525,13.823324 1.39245,0.267088 1.75,-0.366859 1.75,-3.102795 0,-4.767244 3.0436301,-8.229937 8.4249901,-9.584979 3.86457,-0.973111 5.1012,-2.002203 9.04168,-7.524299 2.51065,-3.518355 5.26953,-6.667436 6.13086,-6.997957 C 32.42859,34.270426 40.34945,34 49.16917,34 h 16.03586 l 3.63235,3.813465 c 1.9978,2.097405 4.98236,5.405494 6.63236,7.351308 2.58265,3.045673 3.97381,3.716407 10,4.821396 8.05616,1.477214 12.00748,3.225028 13.47035,5.95844 0.56631,1.058149 1.029648,5.103492 1.029648,8.98965 C 99.969738,73.295161 98.15296,76 92.53713,76 c -2.59252,0 -3.59333,0.506374 -4.08929,2.068994 -0.82097,2.58665 -6.16024,5.92353 -9.4781,5.92353 -3.68027,0 -8.47582,-3.31281 -9.95101,-6.87425 L 67.7271,74 H 52.96974 38.21238 l -1.29163,3.118274 c -1.4752,3.56144 -6.27075,6.87425 -9.95101,6.87425 -1.375,0 -3.92232,-0.86727 -5.66072,-1.92726 z m 10.34627,-4.23958 c 2.90526,-2.729348 2.96094,-6.508622 0.14013,-9.511233 -2.72935,-2.90526 -6.50862,-2.960943 -9.51123,-0.140137 -2.90526,2.72935 -2.96094,6.508624 -0.14014,9.51124 2.72935,2.90526 6.50863,2.96094 9.51124,0.14013 z m 52,0 c 2.90526,-2.729348 2.96094,-6.508622 0.14013,-9.511233 -2.72935,-2.90526 -6.50862,-2.960943 -9.51123,-0.140137 -2.90526,2.72935 -2.96094,6.508624 -0.14014,9.51124 2.72935,2.90526 6.50863,2.96094 9.51124,0.14013 z M 45.96974,42.95431 v -5.04569 l -6.58253,0.29569 C 32.80865,38.499821 32.80255,38.502871 29.2914,43.25 L 25.77812,48 H 35.87393 45.96974 Z M 69.4392,44.25 C 65.19407,38.498658 64.18394,38 56.77861,38 h -6.80887 v 5 5 h 11.11869 11.11869 z"
     style="fill:#030303" />
</svg>
