<?xml version="1.0" encoding="UTF-8" standalone="no"?>
<svg
   xmlns:dc="http://purl.org/dc/elements/1.1/"
   xmlns:cc="http://creativecommons.org/ns#"
   xmlns:rdf="http://www.w3.org/1999/02/22-rdf-syntax-ns#"
   xmlns:svg="http://www.w3.org/2000/svg"
   xmlns="http://www.w3.org/2000/svg"
   viewBox="0 0 47.144119 99.862365"
   height="99.862366"
   width="47.144119"
   id="svg2"
   version="1.1">
  <metadata
     id="metadata8">
    <rdf:RDF>
      <cc:Work
         rdf:about="">
        <dc:format>image/svg+xml</dc:format>
        <dc:type
           rdf:resource="http://purl.org/dc/dcmitype/StillImage" />
        <dc:title></dc:title>
      </cc:Work>
    </rdf:RDF>
  </metadata>
  <defs
     id="defs6" />
  <path
     id="path830"
     d="m 7.688364,97.612364 c -2.12527,-5.607045 -6.11723,-21.909322 -5.57844,-22.781106 0.32935,-0.532892 2.78729,-0.968894 5.46209,-0.968894 h 4.86327 l 5.57771,-10.39853 c 3.06774,-5.719192 5.57771,-10.669192 5.57771,-11 0,-0.330809 -5.18913,-0.60147 -11.53139,-0.60147 -8.73668,0 -11.65646003,-0.32595 -12.04748003,-1.344923 -0.28385,-0.739708 4.57369003,-12.327208 10.79454003,-25.75 l 11.31064,-24.40507752 8.25261,-0.29069711 c 6.20623,-0.2186137 8.38082,0.043397 8.76963,1.05663173 0.28436,0.7410308 -3.30203,9.3093449 -7.96976,19.0406979 l -8.48678,17.693368 h 11.89498 c 7.22112,0 12.14969,0.412148 12.54324,1.048918 0.35655,0.576904 -3.4419,8.430225 -8.44098,17.451824 -4.99909,9.021599 -9.08925,16.62493 -9.08925,16.896292 0,0.271361 2.1375,0.63054 4.75,0.798175 3.31764,0.212882 4.75,0.737387 4.75,1.739371 0,1.410168 -27.92199,24.065424 -29.65998,24.065424 -0.48924,0 -1.2733,-1.012504 -1.74236,-2.250004 z"
     style="fill:#030303" />
</svg>
