<?xml version="1.0" encoding="UTF-8" standalone="no"?>
<svg
   xmlns:dc="http://purl.org/dc/elements/1.1/"
   xmlns:cc="http://creativecommons.org/ns#"
   xmlns:rdf="http://www.w3.org/1999/02/22-rdf-syntax-ns#"
   xmlns:svg="http://www.w3.org/2000/svg"
   xmlns="http://www.w3.org/2000/svg"
   viewBox="0 0 91.559196 91.5652"
   height="91.565201"
   width="91.559196"
   id="svg2"
   version="1.1">
  <metadata
     id="metadata8">
    <rdf:RDF>
      <cc:Work
         rdf:about="">
        <dc:format>image/svg+xml</dc:format>
        <dc:type
           rdf:resource="http://purl.org/dc/dcmitype/StillImage" />
        <dc:title></dc:title>
      </cc:Work>
    </rdf:RDF>
  </metadata>
  <defs
     id="defs6" />
  <path
     id="path843"
     d="M 34.390518,90.14954 C 11.985708,84.72819 -3.2517299,61.438229 0.59408613,38.492719 6.7735881,1.6236119 51.738568,-12.913447 78.090388,13.438371 c 17.95841,17.958413 17.95841,46.650283 0,64.608696 -11.68262,11.682621 -27.42143,16.041409 -43.69987,12.102473 z m 26.39552,-5.324568 c 11.06089,-4.245323 19.66171,-12.813734 24.17334,-24.082253 3.12044,-7.793798 3.12044,-22.206202 0,-30 C 78.899218,15.606497 64.588018,4.8913229 49.801278,4.4189189 l -5.51524,-0.1762 v 8.5000001 c 0,6.888889 0.28431,8.5 1.5,8.5 1.1584,0 1.56787,-1.560485 1.79802,-6.852282 l 0.29802,-6.8522821 3.61965,0.67905 c 8.65559,1.623797 14.753,4.8191871 20.87182,10.9380031 8.1017,8.101697 10.81656,14.774936 10.81656,26.587511 0,11.812575 -2.71486,18.485814 -10.81656,26.587511 -8.1017,8.101697 -14.77493,10.816561 -26.58751,10.816561 -11.72515,0 -18.17513,-2.62508 -26.45051,-10.765107 -8.40435,-8.266893 -10.9879199,-14.67075 -10.9488999,-27.138965 0.0308,-9.846598 2.3415399,-16.754425 7.7419699,-23.144356 1.46159,-1.729396 2.65744,-3.866896 2.65744,-4.75 0,-3.044571 -2.99004,-1.592769 -6.47592,3.144356 -17.5753579,23.88397 -5.9877999,57.761785 22.47592,65.711415 7.21241,2.014353 18.75346,1.402161 26,-1.379162 z m -11,-35.082253 c 2.10099,-2.100987 2.43155,-3.711828 1.34354,-6.547136 -0.65415,-1.704681 -23.19587,-16.933867 -23.94947,-16.180263 -0.63122,0.631221 12.48523,21.043428 14.76479,22.977399 2.70985,2.299035 5.37715,2.213993 7.84114,-0.25 z"
     style="fill:#040404" />
</svg>
